<svg version="1.1" xmlns="http://www.w3.org/2000/svg" xmlns:xlink="http://www.w3.org/1999/xlink" width="144.28492" height="209.00859" viewBox="0,0,144.28492,209.00859"><g transform="translate(-168.28106,-76.69441)"><g data-paper-data="{&quot;isPaintingLayer&quot;:true}" fill-rule="nonzero" stroke-linejoin="miter" stroke-miterlimit="10" stroke-dasharray="" stroke-dashoffset="0" style="mix-blend-mode: normal"><path d="M221.5,244.19901c-3.80899,3.48001 -11.92,8.45298 -25.229,5.211c-21.22099,-5.168 -26.77699,-29.66401 -26.77699,-29.66401c0,0 -2.35001,-8.61101 4.502,-10.18001c6.85199,-1.564 8.22299,7.63501 8.22299,7.63501c0,0 8.416,22.90599 22.121,23.29699c7.02301,0.20101 12.55701,-1.912 16.28101,-4.02099c0,0 1.965,-0.317 2.871,1.732c0.906,2.05501 -1.99201,5.99 -1.99201,5.99" fill="#f3c50d" stroke="none" stroke-width="1" stroke-linecap="butt"/><path d="M185.68,237.277c-1.10599,2.47901 -1.30699,4.67601 -0.93399,6.61401c-11.80701,-8.983 -15.252,-24.14301 -15.252,-24.14301c0,0 -2.35001,-8.62 4.502,-10.18201c6.85199,-1.564 8.22299,7.63501 8.22299,7.63501c0,0 2.87001,7.79699 7.97901,14.371c-1.768,1.26599 -3.35199,3.092 -4.51801,5.70499" fill="#ffffff" stroke="none" stroke-width="1" stroke-linecap="butt"/><path d="M204.735,251.396c-2.574,0 -5.412,-0.319 -8.521,-1.07599c-21.57499,-5.25403 -27.461,-30.16301 -27.518,-30.414c-0.043,-0.156 -1.28799,-4.84001 0.754,-8.25c0.96499,-1.61101 2.47901,-2.66301 4.50101,-3.127c1.982,-0.45101 3.756,-0.15501 5.27199,0.881c3.10601,2.12199 4.007,6.676 4.143,7.47c0.57901,1.517 8.722,22.20199 21.181,22.558c7.00301,0.211 12.43201,-2.004 15.75901,-3.892l0.98599,1.73999c-3.54899,2.011 -9.33299,4.36001 -16.80299,4.149c-14.218,-0.40399 -22.67999,-22.98999 -23.03301,-23.95101l-0.04999,-0.196c-0.007,-0.04399 -0.70201,-4.448 -3.31601,-6.22899c-1.051,-0.716 -2.259,-0.899 -3.694,-0.578c-1.487,0.33999 -2.543,1.06199 -3.22699,2.19699c-1.60601,2.67201 -0.54501,6.70401 -0.53401,6.74501c0.06401,0.27899 5.69101,23.997 26.05101,28.95401c12.95999,3.15998 20.79999,-1.76401 24.31799,-4.97902l1.349,1.47801c-2.955,2.70099 -8.712,6.51999 -17.61799,6.51999z" fill="#000000" stroke="none" stroke-width="1" stroke-linecap="butt"/><path d="M220.91201,233.689c-6.949,-0.164 -3.27701,-10.135 -3.27701,-10.135c0,0 -4.19099,-5.006 -5.79899,-7.414c-1.537,-2.311 -4.57801,-7.77201 2.72299,-11.55099c5.52701,-2.85401 13.36101,-6.375 17.32001,-8.41l7.231,0.81199l-0.05699,0.021c1.129,-0.707 2.52899,-1.229 4.27499,-1.396c6,-0.586 12.57401,1.31601 12.57401,1.31601c0.09298,0.18399 0.18798,0.379 0.29999,0.594l-0.021,-0.039c1.651,-0.03301 3.297,0.414 3.297,0.414c1.205,0.81599 2.67401,2.017 4.44501,3.744c7.29098,7.09999 19.85401,14.11499 19.85401,14.11499c0,0 1.39599,-6.31 5.23599,-4.72899c3.84198,1.57599 -0.113,6.025 -0.113,6.025c0,0 9.879,-1.66001 8.961,4.49099c-0.582,3.89399 -4.14999,7.442 -10.699,6.18801c-3.74799,-0.71699 -7.91599,-4.631 -7.91599,-4.631c-7.20401,-1.752 -13.02499,-5.23002 -16.729,-9.062l0.01599,0.03c1.949,7.30899 2.89601,15.52199 0.345,22.114c-2.87399,7.414 -7.237,11.75799 -11.91199,14.064l0.06199,-0.02899c-1.43401,3.24399 -4.566,11.11402 -4.43801,17.41599l0.01601,0.053c1.94099,-2.18201 6.89999,-6.64599 15.295,-7.229c11.15799,-0.78198 13.312,9.59301 12.52701,13.89898c-0.781,4.30802 -2.54501,8.81 -2.54501,8.81l-41.11099,-0.586c0,0 13.07599,-27.97796 5.97699,-30.54599l-0.055,-0.00998c-0.282,-0.05701 -0.56,-0.11502 -0.83301,-0.18201c-9.00598,-0.591 -20.164,30.73297 -20.164,30.73297l-31.71499,2.14902c0,0 -7.439,-5.67801 -6.85199,-13.50799c0.58699,-7.82999 10.17999,-15.66001 20.55499,-15.074c6.55901,0.371 10.30099,5.74799 12.16799,9.65399l0.16001,-0.06097c5.21699,-4.20703 10.35001,-17.21502 11.64499,-20.66101c0,0 -0.94999,-4.118 -1.07599,-5.836c-0.126,-1.718 0.33,-5.55301 0.33,-5.55301zM226.18399,220.25701c1.90001,-3.52101 3.97101,-6.993 5.68901,-10.511l-0.02,0.036c-0.414,0.45399 -0.64199,0.673 -0.64199,0.673c-2.289,1.713 -4.74201,2.852 -8.32199,3.459l0.10699,0.16401c1.293,2.176 2.55899,4.686 2.69099,6.34199c0,0 0.18001,-0.043 0.46401,-0.10401z" fill="#f3c50d" stroke="none" stroke-width="1" stroke-linecap="butt"/><path d="M256.60601,246.189c-6.44301,6.43802 -14.78101,7.08401 -20.746,5.66202c-1.11299,-0.26901 -2.121,-0.53101 -3.03301,-0.802l-0.05899,-0.15701c1.05799,-5.63199 6.21798,-28.129 20.94699,-27.39999c11.75901,0.582 5.211,17.522 2.98401,22.586z" fill="#ffffff" stroke="none" stroke-width="1" stroke-linecap="butt"/><path d="M307.15198,183.88501c-0.65097,2.71698 -3.47098,3.84 -3.47098,3.84l-7.57199,0.355l-3.90201,0.589c-0.20301,0.168 -0.40298,0.332 -0.604,0.49798c0.379,0.76601 3.20498,6.735 0.26001,8.68801c-2.93302,1.95401 -10.474,-1.17298 -11.48001,-1.606c-6.002,2.82901 -12.75699,4.68099 -19.836,4.96101c-17.32599,0.689 -33.242,-0.47301 -46.429,-9.48301l-3.929,0.56301c0,0 -7.985,1.66001 -9.88899,0c-1.903,-1.65799 1.52499,-11.80401 1.52499,-11.80401l-1.10398,0.06202l-11.87001,-0.04901c0,0 -8.39599,0.737 -9.732,-3.493c-1.334,-4.22799 9.711,-12.24899 9.711,-12.24899l5.08699,-4.00101c-1.96699,-12.357 1.22001,-22.726 1.22001,-22.726c0,-8.982 5.287,-25.628 5.287,-25.628l-0.039,-0.151c-3.485,-12.693 -2.64699,-29.349 1.81401,-32.213c4.05399,-2.60201 11.07199,-0.147 19.56599,4.771c2.365,1.37001 6.09001,3.933 9.217,6.146l0.09399,-0.02c4.00801,-0.945 8.93802,-1.727 14.72302,-1.956c5.65198,-0.22401 10.95099,0.31799 15.861,1.46399l0.17399,0.027c8.92399,-8.589 22.97701,-15.388 27.35201,-13.009c4,2.172 5.151,9.08799 4.93799,18.345c-0.082,3.60401 -0.88101,10.46801 -1.35397,14.24401l-0.05603,0.061c4.85602,6.184 7.78802,13.44201 8.729,19.47899c1.461,9.374 -1.47101,19.85401 -1.47101,19.85401c0,0 5.47702,4.933 4.55701,18.98001c-0.16598,2.52698 -0.95099,5.176 -2.24799,7.82599c2.53,2.768 5.23499,6.14999 4.87097,7.63501z" fill="#009eff" stroke="none" stroke-width="1" stroke-linecap="butt"/><path d="M212.30121,190.74743c-5.56801,0.98399 -10.92821,1.23181 -11.68221,0.5578c-0.595,-0.78299 0.2405,-5.82403 1.7925,-10.78404l0.43658,-1.39641l-1.45961,0.1004c-10.16299,0.68799 -21.29832,-0.21042 -21.65732,-2.63742c-0.472,-3.183 8.11554,-10.6976 13.64054,-14.6826l0.48497,-0.35111l-0.07924,-0.59349c-1.294,-9.705 1.07758,-18.47501 1.89258,-21.088l0.32199,0.05906l0,-1.19331c0,-8.722 5.19595,-25.18735 5.24795,-25.35236l0.08716,-0.27424l-0.11483,-0.44126c-3.631,-13.231 -2.28224,-28.75489 1.40375,-31.12189c3.268,-2.097 9.33696,-0.53519 18.53496,4.78881c4.61398,2.674 14.65739,10.06808 14.75839,10.14308l1.1997,-1.5097c-0.159,-0.115 -1.71077,-1.35098 -3.81177,-2.85798c3.96499,-0.806 8.14589,-1.30059 12.44989,-1.47059c4.778,-0.186 9.48557,0.18109 14.00058,1.09209c-0.30701,0.326 -0.61048,0.64982 -0.90147,0.97382l1.48475,1.3367c8.68901,-9.677 24.29067,-17.21023 28.30867,-15.02923c3.19699,1.739 4.64765,7.45141 4.41764,17.45041c-0.11096,5.026 -1.66309,16.6838 -1.68308,16.8008l1.97946,0.26989c0.00198,-0.018 0.00595,-0.04706 0.01596,-0.08906c3.60699,5.211 6.13572,11.29389 7.02573,17.00089c1.409,9.042 -1.41627,19.34254 -1.44526,19.44555l-0.15409,0.59552l0.44294,0.41525c0.04999,0.048 5.09903,4.89786 4.22803,18.19185c-0.86701,13.23101 -20.38843,29.96415 -43.28544,30.87016c-13.27899,0.53 -32.65091,0.15988 -47.17391,-9.0681l-0.32829,-0.20918z" data-paper-data="{&quot;noHover&quot;:false,&quot;origItem&quot;:[&quot;Path&quot;,{&quot;applyMatrix&quot;:true,&quot;segments&quot;:[[212.704,190.646],[[213.032,190.85501],[0,0],[14.523,9.22798]],[[260.16699,199.91901],[-13.27899,0.53],[22.897,-0.906]],[[303.42199,169.075],[-0.86701,13.23101],[0.871,-13.29399]],[[299.19,150.89499],[0.04999,0.048],[0,0]],[298.74701,150.48001],[[298.901,149.88501],[0,0],[0.02899,-0.10301]],[[300.34601,130.456],[1.409,9.042],[-0.89002,-5.707]],[[293.32501,113.47],[3.60699,5.211],[-0.01001,0.042]],[[293.30902,113.559],[0.00198,-0.018],[0,0]],[[291.33002,113.29],[0,0],[0.01999,-0.117]],[[293.01898,96.498],[-0.11096,5.026],[0.23001,-9.999]],[[288.60901,79.055],[3.19699,1.739],[-4.01801,-2.181]],[[260.312,94.09101],[8.68901,-9.677],[0,0]],[[258.82901,92.755],[0,0],[0.29098,-0.32399]],[[259.73001,91.781],[-0.30701,0.326],[-4.51502,-0.91099]],[[245.743,90.692],[4.778,-0.186],[-4.304,0.17]],[[233.306,92.16201],[3.96499,-0.806],[2.101,1.507]],[[237.10401,94.921],[-0.159,-0.115],[0,0]],[[235.916,96.53],[0,0],[-0.101,-0.075]],[[221.16901,86.38401],[4.61398,2.674],[-9.198,-5.324]],[[202.644,81.59],[3.268,-2.097],[-3.68599,2.36701]],[[201.254,112.698],[-3.631,-13.231],[0,0]],[201.36901,113.139],[[201.282,113.413],[0,0],[-0.052,0.16501]],[[196.04199,138.739],[0,-8.722],[0,0]],[196.04199,139.931],[[195.72,139.87201],[0,0],[-0.815,2.61299]],[[193.823,160.94],[-1.294,-9.705],[0,0]],[193.90201,161.53299],[[193.41699,161.88401],[0,0],[-5.52499,3.985]],[[179.774,176.562],[-0.472,-3.183],[0.35899,2.427]],[[201.424,179.19],[-10.16299,0.68799],[0,0]],[202.883,179.08899],[[202.446,180.485],[0,0],[-1.552,4.96]],[[200.65,191.26599],[-0.595,-0.78299],[0.754,0.67401]],[[212.32601,190.70401],[-5.56801,0.98399],[0,0]]],&quot;closed&quot;:true,&quot;fillColor&quot;:[0,0,0,1]}]}" fill="#f3c50d" stroke="none" stroke-width="0.5" stroke-linecap="butt"/><path d="M183.853,285.70301l-0.29899,-0.22901c-0.322,-0.246 -7.864,-6.104 -7.243,-14.379c0.659,-8.81198 11.166,-16.604 21.608,-15.996c6.47099,0.363 10.34099,5.12298 12.458,9.08398c4.586,-4.52899 9.05699,-15.65198 10.39599,-19.16797c-1.086,-3.51502 -1.35199,-7.03502 -0.806,-10.72402c-1.23999,-0.27201 -2.204,-0.903 -2.874,-1.89c-1.849,-2.707 -0.66099,-7.285 -0.162,-8.879c-1.05899,-1.274 -4.147,-5.03101 -5.506,-7.069c-0.68901,-1.037 -2.786,-4.188 -1.912,-7.562c0.564,-2.181 2.24899,-4.007 5.00799,-5.43501c2.946,-1.52199 6.918,-3.401 10.422,-5.06l2.44602,-1.15799l0.858,1.807l-2.45001,1.16c-3.489,1.648 -7.44299,3.52099 -10.358,5.02499c-2.233,1.15401 -3.575,2.55501 -3.99099,4.15801c-0.43801,1.68801 0.1,3.635 1.641,5.95c1.558,2.33701 5.692,7.276 5.73299,7.325l0.37201,0.44301l-0.2,0.54299c-0.53,1.44499 -1.608,5.63299 -0.24901,7.619c0.52099,0.765 1.38201,1.14599 2.633,1.172c1.41301,0.02201 2.572,-0.40001 3.50202,-1.31199c2.43399,-2.386 2.462,-7.14 2.462,-7.18801v-1.02099l1.02199,0.02099c1.334,0.041 3.762,-0.24299 4.593,-1.099c0.189,-0.192 0.265,-0.39 0.252,-0.649c-0.00499,-0.108 -0.02901,-0.18201 -0.149,-0.27099c-0.98401,-0.735 -4.58899,-0.30901 -6.716,0.21399l-1.14099,0.279l-0.09399,-1.171c-0.21,-2.62999 -3.96802,-8.289 -5.39902,-10.248l1.615,-1.181c0.246,0.338 1.33201,1.84201 2.49801,3.73201c2.845,-0.56201 5.03201,-1.52101 7.208,-3.14801l0.02099,0.02701c0.544,-1.10401 1.05301,-2.20901 1.506,-3.312l1.84999,0.76c-1.41699,3.448 -3.32499,6.86001 -5.16999,10.159c-0.315,0.56199 -0.63,1.12699 -0.943,1.688c1.994,-0.28301 4.62199,-0.40401 5.961,0.59599c0.588,0.43801 0.91701,1.05301 0.951,1.77501c0.039,0.81199 -0.244,1.55299 -0.819,2.14498c-1.254,1.28501 -3.709,1.60401 -5.095,1.68001c-0.14599,1.74201 -0.723,5.39301 -3.01401,7.63899c-1.17299,1.14601 -2.62199,1.77501 -4.31298,1.873c-0.564,3.65801 -0.261,7.143 0.922,10.61699l-0.05,0.02002l0.041,0.016c-1.411,3.79199 -6.31901,16.238 -11.59,20.97699c0.828,1.89203 1.2,3.31201 1.245,3.48804l-1.93798,0.49097c-0.03202,-0.12399 -3.27802,-12.414 -12.79102,-12.953c-10.17399,-0.565 -18.986,7.27203 -19.50099,14.14902c-0.477,6.349 4.88099,11.306 6.18199,12.41001l30.66701,-2.08002c1.666,-4.56897 9.38601,-24.77499 17.3,-29.70499c-5.75201,-1.71298 -7.73401,-3.349 -7.82901,-3.42801l1.292,-1.526c0.01899,0.01703 2.55,2.03601 10.287,3.88702c0.38199,0.03299 0.73999,0.10999 1.073,0.23099c8.703,1.664 19.50299,-1.487 24.845,-15.27c4.18601,-10.802 -1.376,-26.25701 -5.06201,-34.508l1.82602,-0.81401c1.46499,3.274 3.21099,7.656 4.55699,12.46301c3.875,4.11099 9.86101,7.385 16.465,8.989l0.25801,0.06199l0.18899,0.181c0.039,0.037 4.00598,3.728 7.41998,4.38001c2.79102,0.537 5.18802,0.164 6.93302,-1.07201c1.40702,-0.998 2.331,-2.51899 2.594,-4.276c0.151,-1.01899 -0.04501,-1.77401 -0.60397,-2.322c-1.604,-1.571 -5.74002,-1.278 -7.20102,-1.03401l-2.78298,0.46901l1.86798,-2.11701c0.47602,-0.537 1.771,-2.32899 1.50601,-3.46899c-0.03501,-0.149 -0.14603,-0.608 -1.022,-0.97501c-0.586,-0.23599 -1.07202,-0.236 -1.535,0.00301c-1.33999,0.69699 -2.14599,3.142 -2.34399,4.02099l-0.29502,1.31l-1.17099,-0.64901c-0.521,-0.289 -12.76199,-7.166 -20.06201,-14.27299c-0.344,-0.336 -0.67398,-0.65 -0.99298,-0.943l1.35399,-1.472c0.334,0.30802 0.678,0.634 1.03301,0.983c5.87201,5.71501 15.35999,11.46501 18.55701,13.332c0.46298,-1.31199 1.388,-3.239 2.99201,-4.07599c0.98199,-0.518 2.09997,-0.54302 3.22299,-0.082c1.521,0.625 2.043,1.637 2.21399,2.37299c0.27103,1.16801 -0.14899,2.39801 -0.67301,3.38201c2.06403,-0.091 5.04999,0.13701 6.73801,1.79401c0.70902,0.69499 1.487,1.96401 1.18003,4.04599c-0.34601,2.30602 -1.56104,4.29901 -3.41602,5.615c-1.53302,1.08701 -4.24201,2.21099 -8.46301,1.40499c-3.55298,-0.683 -7.31198,-3.89599 -8.215,-4.705c-5.656,-1.414 -10.88998,-4 -14.83799,-7.291c1.50801,6.76601 1.96501,14.007 -0.35699,20.00399c-2.834,7.31201 -7.197,11.83201 -11.985,14.34202c-1.23901,2.85199 -3.61402,8.88598 -4.137,14.31598c2.68799,-2.35699 7.319,-5.26397 14.13899,-5.73999c4.317,-0.31097 7.89,0.98001 10.343,3.72101c3.23498,3.61099 3.711,8.77002 3.23999,11.354c-0.79098,4.354 -2.523,8.81201 -2.59699,8.996l-0.253,0.64599l-43.351,-0.61801l0.655,-1.401c2.97799,-6.36899 10.11899,-23.896 7.43601,-28.43097c-0.199,-0.33703 -0.44501,-0.56903 -0.76001,-0.71301c-0.27301,-0.05401 -0.545,-0.112 -0.81199,-0.17499c-6.77101,-0.32404 -16.066,21.59097 -19.09001,30.07797l-0.21999,0.61701zM232.49401,281.551l38.87399,0.55503c0.503,-1.38101 1.666,-4.76001 2.252,-7.97901c0.38401,-2.113 -0.026,-6.60699 -2.76499,-9.66302c-2.056,-2.29098 -4.979,-3.31897 -8.71101,-3.06c-10.5,0.73602 -15.438,7.904 -15.487,7.97803l-1.663,-1.11002c0.04399,-0.06399 0.297,-0.43802 0.76799,-0.99399c-0.01899,-5.23901 2.053,-11.42199 3.58599,-15.26901c-3.28299,1.20498 -6.66599,1.56997 -9.819,1.33401c2.41001,6.23099 -4.66199,22.92499 -7.03499,28.20798zM224.894,214.38201c0.63401,1.14 1.222,2.325 1.63401,3.425c0.321,-0.578 0.645,-1.156 0.96699,-1.731c0.595,-1.06199 1.19602,-2.14 1.784,-3.222c-1.34599,0.66899 -2.773,1.166 -4.385,1.528z" fill="#000000" stroke="none" stroke-width="1" stroke-linecap="butt"/><path d="M304.87201,167.506c-0.177,11.95201 -14.06,22.31999 -20.20901,25.66c-6.15199,3.334 -12.12699,6.50101 -25.65799,7.02201c0,0 -19.332,-0.34901 -27.768,-5.271c-8.436,-4.92 -16.87199,-10.01701 -16.52,-25.482c0.216,-9.517 6.821,-14.15301 14.49201,-16.20499c-0.707,-2.96201 -1.10399,-6.28501 -1.10399,-9.80301c0,-12.39099 4.92499,-22.438 11,-22.438c6.07599,0 11,10.04299 11,22.438c0,3.24399 -0.34001,6.32401 -0.945,9.10901c6.53,1.20498 12.479,3.543 12.479,3.543c0,0 5.37299,-2.39601 12.19699,-4.06201c-1.267,-3.20399 -2.029,-7.21399 -2.029,-11.582c0,-10.459 4.327,-18.93799 9.664,-18.93799c5.33801,0 9.664,8.478 9.664,18.93799c0,3.79001 -0.574,7.31201 -1.552,10.27301c9.24099,1.137 15.44397,6.198 15.289,16.79799z" fill="#ffffff" stroke="none" stroke-width="1" stroke-linecap="butt"/><path d="M264.93,148.87201c3.28702,0 6.574,0.77298 7.16,3.87c0.58,3.09199 -3.28399,9.66699 -9.08599,9.66699c-5.03299,0 -9.478,-5.224 -9.478,-9.476c0,-4.254 5.601,-4.06099 11.404,-4.06099" fill="#000000" stroke="none" stroke-width="1" stroke-linecap="butt"/><path d="M280.35001,171.47699c0,0 -4.87302,10.91 -18.80099,9.98001c-13.92801,-0.92801 -17.875,-14.39 -17.875,-14.39" fill="none" stroke="#000000" stroke-width="2" stroke-linecap="round"/><path d="M227.457,97.538c-4.58499,1.77701 -9.061,4.12401 -13.368,7.013c-1.87801,-3.051 -2.67801,-8.607 -2.114,-12.183c0.23599,-1.49899 0.71199,-2.59199 1.27299,-2.92299c0.22099,-0.12999 0.484,-0.189 0.782,-0.189c1.504,0 3.86701,1.49401 5.83,2.734l0.45799,0.289c2.27901,1.434 5.38501,3.85599 7.139,5.25899zM286.93402,91.394c-0.51801,-0.307 -1.617,-0.19899 -2.953,0.28c-3.18201,1.147 -7.36902,4.289 -9.04901,7.198c4.293,2.22899 8.229,4.837 11.74597,7.788c0.36401,-2.103 0.94104,-5.69201 1.09204,-8.18801l0.02997,-0.497c0.16202,-2.606 0.36401,-5.851 -0.86597,-6.581z" fill="#ffffff" stroke="none" stroke-width="1" stroke-linecap="butt"/><path d="M283.70999,141.79599c0,-5.60899 -1.621,-10.15799 -3.61899,-10.15799c-2,0 -3.621,4.54899 -3.621,10.15799c0,4.12802 0.879,7.67402 2.14,9.26401c1.053,-0.153 2.13099,-0.28 3.22999,-0.37199c1.11401,-1.73201 1.87,-5.06301 1.87,-8.89202zM238.24201,151.879c-0.72301,0.03301 -1.455,0.08801 -2.19101,0.15601c-1.50699,-1.22799 -2.60998,-5.12601 -2.60998,-9.75101c0,-5.60899 1.62098,-10.15699 3.62098,-10.15699c1.998,0 3.62001,4.548 3.62001,10.15699c0,4.448 -1.02099,8.219 -2.44,9.595z" fill="#000000" stroke="none" stroke-width="1" stroke-linecap="butt"/><path d="M253.004,202.07601c-12.64499,0 -28.27201,-1.56601 -40.715,-9.32601c-3.011,0.518 -11.097,1.709 -12.99701,-0.001c-1.68799,-1.51898 -0.385,-7.33899 0.82101,-11.46399c-6.53401,0.355 -21.576,0.62199 -22.32299,-4.41701c-0.74701,-5.02598 10.60799,-13.77401 13.96999,-16.24199c-1.166,-9.80901 1.177,-19.13301 2.27701,-21.89002c0.00499,-8.50099 4.52901,-23.33999 5.246,-25.63899c-3.30901,-12.185 -2.918,-29.847 2.27598,-33.183c4.01401,-2.57801 10.56302,-1.069 20.608,4.74699c2.319,1.34201 5.87201,3.776 8.93201,5.93801c4.60199,-1.061 9.49899,-1.699 14.56201,-1.89701c5.39699,-0.21399 10.70398,0.26 15.771,1.40601c8.79899,-8.267 22.95099,-15.618 28.13299,-12.801c3.979,2.16101 5.70899,8.277 5.457,19.246c-0.08402,3.579 -0.85098,10.195 -1.32999,14.042c4.45697,5.81199 7.59998,12.91401 8.63696,19.56299c1.30304,8.358 -0.76599,17.40501 -1.35397,19.72401c1.35397,1.554 5.24197,7.153 4.44498,19.33099c-0.13599,2.06301 -0.664,4.18801 -1.54199,6.32c3.68302,4.14701 5.01901,7.501 3.97601,9.96402c-1.13901,2.677 -6.031,3.91098 -14.52099,3.68698c-0.15003,0.13101 -0.30902,0.26001 -0.461,0.38701c1.56598,4.06 1.30298,7.035 -0.76401,8.40401c-2.55899,1.69299 -7.46899,0.394 -11.16,-1.013c-6.209,2.825 -13.24701,4.668 -20.696,4.963c-2.26601,0.089 -4.69499,0.151 -7.248,0.151zM212.704,190.646l0.32801,0.20901c14.523,9.22798 33.856,9.594 47.13499,9.064c22.897,-0.906 42.388,-17.613 43.255,-30.84401c0.871,-13.29399 -4.18201,-18.132 -4.23199,-18.18l-0.44299,-0.41498l0.15399,-0.595c0.02899,-0.10301 2.854,-10.38701 1.44501,-19.42901c-0.89002,-5.707 -3.414,-11.775 -7.021,-16.986c-0.01001,0.042 -0.01401,0.071 -0.01599,0.089l-1.979,-0.269c0.01999,-0.117 1.57801,-11.766 1.68896,-16.792c0.23001,-9.999 -1.21298,-15.704 -4.40997,-17.443c-4.01801,-2.181 -19.608,5.359 -28.29701,15.036l-1.48299,-1.33601c0.29098,-0.32399 0.594,-0.64799 0.901,-0.97399c-4.51502,-0.91099 -9.20901,-1.27501 -13.98701,-1.089c-4.304,0.17 -8.472,0.66401 -12.43699,1.47001c2.101,1.507 3.63901,2.644 3.798,2.759l-1.18801,1.609c-0.101,-0.075 -10.13301,-7.472 -14.74699,-10.14599c-9.198,-5.324 -15.25701,-6.89101 -18.52501,-4.79401c-3.68599,2.36701 -5.02099,17.877 -1.38999,31.108l0.115,0.441l-0.087,0.27399c-0.052,0.16501 -5.24001,16.60401 -5.24001,25.32601v1.192l-0.32199,-0.05899c-0.815,2.61299 -3.191,11.36299 -1.897,21.06799l0.07901,0.59299l-0.48502,0.35101c-5.52499,3.985 -14.11499,11.49499 -13.64299,14.67799c0.35899,2.427 11.487,3.316 21.64999,2.62801l1.459,-0.10101l-0.43699,1.39601c-1.552,4.96 -2.39101,9.998 -1.79601,10.78099c0.754,0.67401 6.108,0.42202 11.67601,-0.56198zM283.479,195.72901c3.53699,1.13299 6.336,1.361 7.521,0.57599c1.46301,-0.972 0.77099,-3.79799 0.212,-5.43599c-2.35703,1.77899 -4.94799,3.41899 -7.733,4.86zM302.95502,177.52301c-1.70801,3.333 -4.23804,6.633 -7.42401,9.67999c5.81201,-0.047 9.83698,-0.97901 10.47901,-2.48801c0.64999,-1.53799 -0.43104,-4.07 -3.055,-7.19198zM288.366,110.86701c-4.67499,-4.511 -10.25698,-8.32301 -16.591,-11.32801l0.85401,-1.80701c0.17001,0.07901 0.34399,0.16001 0.51199,0.24201c1.93802,-3.441 6.52402,-6.874 10.156,-8.183c2.00799,-0.722 3.569,-0.761 4.65003,-0.12c2.27899,1.35401 2.06097,4.95 1.844,8.428l-0.02503,0.49299c-0.19299,3.21101 -1.03299,7.98201 -1.32998,9.60201c0.44198,0.403 0.88699,0.815 1.31399,1.231zM274.93201,98.873c4.293,2.22901 8.229,4.837 11.74597,7.78799c0.36401,-2.103 0.94104,-5.692 1.09204,-8.188l0.02997,-0.497c0.16202,-2.605 0.36401,-5.85299 -0.86597,-6.583c-0.51801,-0.307 -1.617,-0.199 -2.953,0.28001c-3.18201,1.14799 -7.37003,4.28999 -9.04901,7.2zM213.084,107.68801l-1.172,-1.62001c0.176,-0.127 0.353,-0.25299 0.52901,-0.37999c-2.22801,-3.543 -3.082,-9.57801 -2.44301,-13.63201c0.34801,-2.207 1.099,-3.665 2.23101,-4.333c2.38899,-1.41101 5.595,0.61601 8.69699,2.576l0.455,0.288c2.903,1.827 6.941,5.069 8.26601,6.148c0.614,-0.21401 1.22999,-0.414 1.849,-0.606l0.59299,1.91c-6.57898,2.042 -12.97299,5.288 -19.00499,9.64901zM214.02899,89.255c-0.29799,0 -0.56199,0.059 -0.78198,0.18901c-0.561,0.331 -1.03702,1.424 -1.27301,2.92301c-0.56301,3.57399 0.23599,9.13199 2.114,12.183c4.308,-2.88901 8.78301,-5.234 13.368,-7.013c-1.754,-1.403 -4.85998,-3.825 -7.13998,-5.259l-0.45801,-0.289c-1.96201,-1.24 -4.325,-2.73401 -5.82901,-2.73401z" fill="#000000" stroke="none" stroke-width="1" stroke-linecap="butt"/><path d="M291.2504,190.83697c0.55899,1.638 1.25265,4.52598 -0.21036,5.49798c-1.185,0.78501 -4.06955,0.54776 -7.60654,-0.58523c2.78501,-1.44101 5.45988,-3.13375 7.8169,-4.91274z" data-paper-data="{&quot;noHover&quot;:false,&quot;origItem&quot;:[&quot;Path&quot;,{&quot;applyMatrix&quot;:true,&quot;segments&quot;:[[[283.479,195.72901],[2.78501,-1.44101],[3.53699,1.13299]],[[291,196.305],[-1.185,0.78501],[1.46301,-0.972]],[[291.212,190.86901],[0.55899,1.638],[-2.35703,1.77899]]],&quot;closed&quot;:true,&quot;fillColor&quot;:[0,0,0,1]}]}" fill="#f3c50d" stroke="none" stroke-width="0.5" stroke-linecap="butt"/><path d="M306.05548,184.73578c-0.64203,1.50901 -4.74949,2.45384 -10.5615,2.50084c3.18597,-3.047 5.77286,-6.4265 7.48087,-9.7595c2.62396,3.12198 3.73062,5.72066 3.08062,7.25866z" data-paper-data="{&quot;noHover&quot;:false,&quot;origItem&quot;:[&quot;Path&quot;,{&quot;applyMatrix&quot;:true,&quot;segments&quot;:[[[605.91003,355.04602],[5.24792,6.24396],[-3.41602,6.66599]],[[591.06201,374.40601],[6.37195,-6.09399],[11.62402,-0.09399]],[[612.02002,369.42999],[-1.28406,3.01801],[1.29999,-3.07599]]],&quot;closed&quot;:true,&quot;fillColor&quot;:[0,0,0,1]}]}" fill="#f3c50d" stroke="none" stroke-width="0.5" stroke-linecap="butt"/><path d="M202.485,176.70301l-1.008,-1.72901c11.271,-6.575 23.698,-3.00699 24.222,-2.85199l-0.567,1.918c-0.121,-0.03301 -12.14,-3.46802 -22.647,2.66299zM311.64502,172.219c-7.79901,-4.06199 -15.39102,-1.40799 -15.46704,-1.38001l-0.67798,-1.88199c0.34302,-0.123 8.499,-2.97599 17.06598,1.489zM227.08499,163.75299c-0.11599,-0.09298 -11.68798,-9.215 -25.202,-3.97998l-0.722,-1.86502c14.612,-5.659 26.673,3.88101 27.18001,4.29101zM294.68601,161.562l-1.30802,-1.51399c0.34503,-0.29901 8.56701,-7.306 18.112,-5.87601l-0.29699,1.97901c-8.61798,-1.28601 -16.42898,5.345 -16.50699,5.41099z" fill="#000000" stroke="none" stroke-width="1" stroke-linecap="butt"/></g></g></svg>